<?xml version="1.0" encoding="utf-8"?>
<!-- Generator: Adobe Illustrator 22.1.0, SVG Export Plug-In . SVG Version: 6.00 Build 0)  -->
<svg version="1.1" id="Layer_1" xmlns="http://www.w3.org/2000/svg" xmlns:xlink="http://www.w3.org/1999/xlink" x="0px" y="0px"
	 viewBox="0 0 400 400" style="enable-background:new 0 0 400 400;" xml:space="preserve">
<style type="text/css">
	.st0{fill:#CCCBBC;}
	.st1{clip-path:url(#SVGID_2_);fill:#FAC042;}
	.st2{clip-path:url(#SVGID_2_);fill:#F7CD48;}
	.st3{clip-path:url(#SVGID_2_);fill:#E9B13F;}
	.st4{clip-path:url(#SVGID_2_);fill:#D52F28;}
	.st5{clip-path:url(#SVGID_2_);fill:#F25A29;}
	.st6{clip-path:url(#SVGID_2_);fill:#F77E41;}
	.st7{clip-path:url(#SVGID_2_);fill:#231F20;}
	.st8{clip-path:url(#SVGID_2_);fill:#FFFFFF;}
	.st9{clip-path:url(#SVGID_2_);fill:#E5E5D1;}
</style>
<polygon class="st0" points="67.3,224.5 86.1,199.1 109.7,205.1 142,184.4 205.2,220.4 286,192 302.6,213.9 319.1,199.1 
	332.7,220.4 319.1,267.2 198.6,309.2 109.7,267.2 "/>
<g>
	<defs>
		<rect id="SVGID_1_" x="59.7" y="3" width="280.7" height="395.3"/>
	</defs>
	<clipPath id="SVGID_2_">
		<use xlink:href="#SVGID_1_"  style="overflow:visible;"/>
	</clipPath>
	<path class="st1" d="M132.8,194c0,0,5.1,19.7,0,32.7c-5.1,13-28.1,39.6-32.4,82.6c-3,30.7,21.7,69.7,96.3,69.7
		c61.3,0,98.5-28.8,100.9-59c3.9-49.5-32-74.7-39.5-94.1c-8.6-22-6.5-41.6-6.5-41.6L132.8,194z"/>
	<path class="st2" d="M161.1,199.6c-4.1,8.5-19.2,48.5-20.1,82.1c-0.9,35.4,29.6,55.5,58,52.9c35.6-3.2,56.3-21.7,52.2-56.6
		c-4.6-39.3-24.2-78.3-24.2-78.3H161.1z"/>
	<path class="st3" d="M218.8,219.4c9.5,1.2,39.3,2.7,39.3,2.7s-5.1-8.2-6.4-22.5c-9-1.1-16.4-0.5-25.5,0.6
		c-15.5,1.9-31.1,2.7-46.7,2.5c-7.8-0.1-15.6-0.6-23.3-1.2c-5-0.4-15.3-3.8-19.3-0.1C153.8,213.9,208.7,218.2,218.8,219.4"/>
	<path class="st1" d="M188.4,58.4c-33.1-0.4-98.8,22.3-98.8,77.8c0,73.7,101.8,77.7,101.8,77.7c54.8,1.2,110.6-25.9,110.3-75.5
		C301.5,90.1,250.1,59.2,188.4,58.4"/>
	<path class="st1" d="M177.2,62.9c4.4-4,8.1-9.2,8.7-15.2c0.6-5.9-2.7-12.5-8.4-14.3c7.9,1.5,14.8,7.5,17.3,15.2
		c2-4.3,5.5-7.8,9.7-10c-0.5,4.3-0.9,8.6-1.4,12.9c2.4-3.8,6.8-6.2,11.2-6.1c-4.6,6.7-3.8,16.7,1.8,22.6L177.2,62.9z"/>
	<path class="st1" d="M92.3,121.5c-9,7.7-18.4,15.9-22.2,27.1c2.7-2.1,6-3.2,9.4-3.3c-1,4.9-1.5,10-1.3,15
		c10.2-2.8,21.8,0.2,29.4,7.7c0.2,0.2,0.5,0.5,0.9,0.4c0.3-0.1,0.3-0.7,0-0.6L92.3,121.5z"/>
	<path class="st1" d="M292.3,116.1c5.7,4,11.4,8,17,12c-1.7,1.3-3.4,2.6-5,4c5.5,5.4,10.2,12,13.8,19.4c-10.9-2.5-22-4-33.1-4.7
		L292.3,116.1z"/>
	<path class="st4" d="M132.6,165.3c-0.3,9.6,13.2,35.6,61.6,37.1c50.6,1.5,61.6-25.6,61.6-25.6C256.7,165.3,132.6,165.3,132.6,165.3
		"/>
	<path class="st5" d="M126.1,161.7c-2.3,10.8,38.1,25.5,74.7,25.2c34.8-0.3,63.7-7.2,64.4-17.6c0.7-10.4-15-12.7-31.4-20
		c-16.5-7.2-18.7-19.6-38.1-18.6c-19.5,1-17.5,11.1-35.8,14.3C141.5,148.1,129.2,147.4,126.1,161.7"/>
	<path class="st6" d="M151.8,151.5c-1.9,0.3-3.9,0.5-5.6,1.4c-1.7,0.9-3.1,2.6-3.1,4.6c0,3.1,3.4,4.9,6.3,6
		c3.5,1.2,7.2,2.2,10.8,2.9c2,0.4,4,0.7,6,0.3c4-0.7,7-4,9.7-7.1c2-2.3,4.2-5,4-8.1c0-0.6-0.2-1.3-0.6-1.8c-0.7-0.8-1.8-0.9-2.8-0.9
		C168.4,148.3,160,150.5,151.8,151.5"/>
	<path class="st7" d="M158.4,128.9c0,4.3-3.5,7.8-7.8,7.8c-4.3,0-7.8-3.5-7.8-7.8c0-4.3,3.5-7.8,7.8-7.8
		C155,121.1,158.4,124.6,158.4,128.9"/>
	<path class="st8" d="M151.6,126.5c0,1.9-1.5,3.4-3.4,3.4c-1.9,0-3.4-1.5-3.4-3.4c0-1.9,1.5-3.4,3.4-3.4
		C150.1,123.1,151.6,124.6,151.6,126.5"/>
	<path class="st7" d="M257.7,136.2c0,4.3-3.5,7.8-7.8,7.8c-4.3,0-7.8-3.5-7.8-7.8c0-4.3,3.5-7.8,7.8-7.8
		C254.2,128.4,257.7,131.9,257.7,136.2"/>
	<path class="st8" d="M250.8,133.7c0,1.9-1.5,3.4-3.4,3.4s-3.4-1.5-3.4-3.4c0-1.9,1.5-3.4,3.4-3.4S250.8,131.8,250.8,133.7"/>
	<path class="st2" d="M150.7,74.4c1.2,0,1.2-1.9,0-1.9C149.4,72.5,149.4,74.4,150.7,74.4"/>
	<path class="st2" d="M150.7,74.4c3.7-0.1,7.3,1.6,9.4,4.6c0.3,0.4,0.8,0.6,1.3,0.3c0.4-0.2,0.6-0.9,0.3-1.3
		c-2.5-3.6-6.7-5.7-11.1-5.6C149.4,72.5,149.4,74.5,150.7,74.4"/>
	<path class="st2" d="M164.9,85c2.8,2.3,4.3,5.8,4.1,9.4c-0.1,1.2,1.8,1.2,1.9,0c0.2-4.1-1.5-8.2-4.7-10.8c-0.4-0.3-1-0.4-1.4,0
		C164.5,84,164.5,84.6,164.9,85"/>
	<path class="st2" d="M176.9,94c1.3,2.6,1.7,5.7,1.3,8.6c-0.1,0.5,0.1,1,0.7,1.2c0.4,0.1,1.1-0.2,1.2-0.7c0.5-3.4,0-6.9-1.5-10
		c-0.2-0.5-0.9-0.6-1.3-0.3C176.7,93,176.6,93.5,176.9,94"/>
	<path class="st2" d="M186.8,104.8c0.3,2.8,0.7,5.6,1,8.5c0.1,0.5,0.4,1,1,1c0.5,0,1-0.4,1-1c-0.3-2.8-0.7-5.6-1-8.5
		c-0.1-0.5-0.4-1-1-1C187.3,103.9,186.7,104.3,186.8,104.8"/>
	<path class="st2" d="M203.3,102.8c-2.1,2.8-3.3,6.2-3.5,9.7c-0.1,1.2,1.9,1.2,1.9,0c0.1-3.2,1.3-6.2,3.2-8.7
		c0.3-0.4,0.1-1.1-0.3-1.3C204.2,102.2,203.7,102.4,203.3,102.8"/>
	<path class="st2" d="M212,112.6c1.6-3.7,3.1-7.4,4.7-11.1c0.2-0.5-0.2-1.1-0.7-1.2c-0.6-0.2-1,0.2-1.2,0.7
		c-1.6,3.7-3.1,7.4-4.7,11.1c-0.2,0.5,0.2,1.1,0.7,1.2C211.4,113.4,211.8,113.1,212,112.6"/>
	<path class="st2" d="M225.8,96.4c2.9-5,7.3-8.9,12.6-11.2c0.5-0.2,0.6-0.9,0.3-1.3c-0.3-0.5-0.8-0.5-1.3-0.3
		c-5.6,2.4-10.3,6.6-13.3,11.9C223.5,96.5,225.1,97.5,225.8,96.4"/>
	<path class="st2" d="M242.1,80.5c2.6-2,5.5-3.7,8.5-4.8c0.5-0.2,0.8-0.6,0.7-1.2c-0.1-0.5-0.7-0.9-1.2-0.7
		c-3.4,1.3-6.5,3.1-9.4,5.3c-0.4,0.3-0.3,1,0,1.4C241.1,80.9,241.7,80.8,242.1,80.5"/>
	<path class="st2" d="M225.2,82.5c3.5-3.5,7.4-6.7,11.6-9.3c1-0.7,0.1-2.3-1-1.6c-4.3,2.8-8.3,6-12,9.6
		C222.9,82,224.3,83.4,225.2,82.5"/>
	<path class="st2" d="M218,93.1c0.3-2.9,1.2-5.7,2.6-8.3c0.6-1.1-1.1-2-1.7-1c-1.6,2.9-2.6,6-2.9,9.3c-0.1,0.5,0.5,1,1,1
		C217.6,94.1,218,93.7,218,93.1"/>
	<path class="st2" d="M202.6,97.4c1-4.1,1.2-8.4,0.5-12.6c-0.1-0.5-0.7-0.8-1.2-0.7c-0.5,0.1-0.8,0.7-0.7,1.2
		c0.7,3.8,0.5,7.8-0.5,11.6C200.5,98.1,202.3,98.6,202.6,97.4"/>
	<path class="st2" d="M191.2,93.6c0.2-4.5-0.9-9-3.3-12.9c-0.6-1.1-2.3-0.1-1.6,1c2.2,3.6,3.2,7.7,3,11.9
		C189.2,94.8,191.1,94.8,191.2,93.6"/>
	<path class="st2" d="M180,82.9c-1.4-3.9-3.7-7.5-6.8-10.2c-0.9-0.8-2.3,0.5-1.4,1.4c2.9,2.5,5.1,5.8,6.3,9.4
		c0.2,0.5,0.7,0.8,1.2,0.7C179.8,84,180.2,83.4,180,82.9"/>
	<path class="st2" d="M166.3,69c-0.9-1.9-2.3-3.5-4-4.7c-0.4-0.3-1.1-0.1-1.3,0.3c-0.3,0.5-0.1,1,0.3,1.3c0.1,0.1-0.1-0.1,0,0
		c0,0,0.1,0.1,0.1,0.1c0.1,0.1,0.2,0.1,0.3,0.2c0.2,0.2,0.3,0.3,0.5,0.5c0.3,0.3,0.7,0.7,1,1c0,0,0.1,0.1,0.1,0.1
		c0.1,0.1,0.1,0.1,0,0c0.1,0.1,0.1,0.2,0.2,0.3c0.1,0.2,0.3,0.4,0.4,0.6c0.3,0.4,0.5,0.8,0.7,1.2c0.2,0.5,0.9,0.6,1.3,0.3
		C166.5,70,166.6,69.5,166.3,69"/>
	<path class="st2" d="M185.6,72.6c-1.7-2.8-3.4-5.7-5.1-8.5c-0.6-1.1-2.3-0.1-1.7,1c1.7,2.8,3.4,5.7,5.1,8.5
		C184.5,74.7,186.2,73.7,185.6,72.6"/>
	<path class="st2" d="M198.9,76.9c-1.2-3.2-0.7-6.9,1.2-9.7c0.3-0.4,0.1-1.1-0.3-1.3c-0.5-0.3-1-0.1-1.3,0.3
		c-2.2,3.2-2.8,7.5-1.4,11.2c0.2,0.5,0.6,0.8,1.2,0.7C198.7,77.9,199.1,77.4,198.9,76.9"/>
	<path class="st2" d="M210.1,75.9c1.9-3.5,4.7-6.4,8.2-8.5c1.1-0.6,0.1-2.3-1-1.7c-3.7,2.2-6.8,5.4-8.8,9.1
		C207.8,76.1,209.5,77,210.1,75.9"/>
	<path class="st2" d="M224.2,74c1.2,0,1.2-1.9,0-1.9C222.9,72.1,222.9,74,224.2,74"/>
	<path class="st2" d="M224.7,73.6c2.7-2.1,5.7-3.7,9-4.7c1.2-0.4,0.7-2.2-0.5-1.8c-3.6,1.1-6.9,2.9-9.8,5.2c-0.4,0.3-0.3,1,0,1.4
		C223.8,74,224.3,73.9,224.7,73.6"/>
	<path class="st9" d="M66.2,224.5c0,0-52.2,173.8,137.9,173.8c185.7,0,127.5-178,127.5-178l-30,19.9l-35-4.9l-12.5,17l-45-12.1
		l-33.5,20.2l-8-28.2l-37.4,20.1l-26.6-38.5l-14.4,26.3L66.2,224.5z"/>
	<path class="st8" d="M80.5,295.3c1.5,7.9,3.4,15.8,7.2,22.8c3.8,7,9.9,13.1,17.5,15.5c2.9,0.9,6.1,1.3,9,0.4
		c8.1-2.5,10.6-13,8.6-21.2c-2-8.2-6.9-15.5-8.6-23.7c-1-4.7-0.9-9.5-1.4-14.2c-1.3-11.3-12-23.8-24.2-17.5
		C75.7,264,78.3,284.1,80.5,295.3"/>
	<path class="st9" d="M79.2,119.6c0,0,30.5-125.5,122.8-116.1c92.3,9.4,113.9,129.7,113.9,129.7L277,149.1l-17.2-30.4l-33.2,9.2
		l-22.7-13.2l-30.3,12.2L159.7,109l-34.1,17.5l-12.5-14.5L79.2,119.6z"/>
	<path class="st8" d="M125.4,53c-3.1,5.5-5.8,11.3-6.1,17.6c-0.3,6.3,2.5,13,8.1,15.8c5.7,2.9,12.9,1.1,17.9-2.9
		c5-4,8.1-9.8,10.9-15.6c2.7-5.8,5.2-11.8,9.3-16.7c4.7-5.6,12-10.9,9.9-19.2c-1.7-6.5-8.3-11.8-15-10.9
		C145.2,23.1,132.3,40.8,125.4,53"/>
	<path class="st1" d="M309,176.5c-4.4-9.5-5.9-20.2-4.4-30.5c0.1-0.7,0.2-1.4-0.4-1.9c-0.2-0.2-0.5-0.2-0.7-0.3
		c-7.3-1.4-16.5,9.4-14.4,16.3C291.5,167.9,301.1,175.7,309,176.5"/>
</g>
<g>
</g>
<g>
</g>
<g>
</g>
<g>
</g>
<g>
</g>
<g>
</g>
<g>
</g>
<g>
</g>
<g>
</g>
<g>
</g>
<g>
</g>
<g>
</g>
<g>
</g>
<g>
</g>
<g>
</g>
</svg>
