<?xml version="1.0" encoding="utf-8"?>
<!-- Generator: Adobe Illustrator 22.1.0, SVG Export Plug-In . SVG Version: 6.00 Build 0)  -->
<svg version="1.1" id="Layer_1" xmlns="http://www.w3.org/2000/svg" xmlns:xlink="http://www.w3.org/1999/xlink" x="0px" y="0px"
	 viewBox="0 0 400 400" style="enable-background:new 0 0 400 400;" xml:space="preserve">
<style type="text/css">
	.st0{fill:#FF5723;}
	.st1{fill:#F2F7F9;}
	.st2{fill:#DADFE2;}
	.st3{fill:#DDE2E5;}
</style>
<g>
	<ellipse class="st0" cx="199.5" cy="337.6" rx="107.8" ry="22.3"/>
	<g>
		<path class="st1" d="M269.4,40.5h-87.3l-66,66l66-13.6c0,3.6-1.4,7-4,9.6l-47.8,48c1.2-1,2.8-1.7,4.5-1.7c3.7,0,6.7,2.9,6.7,6.4
			s-3,6.4-6.7,6.4s-6.7-2.9-6.7-6.4c0-1.6,0.6-3,1.6-4.1L116,164.8v62.7c0,7.2,6.1,13.1,13.7,13.1h139.7c7.5,0,13.7-5.9,13.7-13.1
			V53.6C283,46.4,276.9,40.5,269.4,40.5z M134.8,225.9c-3.7,0-6.7-2.9-6.7-6.4s3-6.4,6.7-6.4s6.7,2.9,6.7,6.4
			S138.5,225.9,134.8,225.9z M134.8,193.8c-3.7,0-6.7-2.9-6.7-6.4s3-6.4,6.7-6.4s6.7,2.9,6.7,6.4
			C141.5,190.9,138.5,193.8,134.8,193.8z"/>
		<g>
			<rect x="160.3" y="126" class="st2" width="99" height="6.3"/>
			<rect x="160.3" y="152.2" class="st2" width="99" height="6.3"/>
			<rect x="160.3" y="178.4" class="st2" width="99" height="6.3"/>
			<rect x="160.3" y="204.6" class="st2" width="99" height="6.3"/>
			<rect x="199.5" y="73.6" class="st2" width="59.8" height="6.3"/>
			<rect x="199.5" y="99.8" class="st2" width="59.8" height="6.3"/>
		</g>
		<path class="st3" d="M130.3,150.5l47.8-48c2.5-2.5,4-6,4-9.6l-66,13.6v58.3l13.6-13.7C129.9,150.9,130.1,150.7,130.3,150.5z
			 M134.8,116.7c3.7,0,6.7,2.9,6.7,6.4s-3,6.4-6.7,6.4s-6.7-2.9-6.7-6.4S131.1,116.7,134.8,116.7z"/>
		<path class="st0" d="M182.1,40.5l-66,66l0,0h52.4c7.5,0,13.6-6.1,13.6-13.6V40.5z"/>
	</g>
</g>
</svg>
