<?xml version="1.0" encoding="utf-8"?>
<!-- Generator: Adobe Illustrator 22.1.0, SVG Export Plug-In . SVG Version: 6.00 Build 0)  -->
<svg version="1.1" id="Layer_1" xmlns="http://www.w3.org/2000/svg" xmlns:xlink="http://www.w3.org/1999/xlink" x="0px" y="0px"
	 viewBox="0 0 400 400" style="enable-background:new 0 0 400 400;" xml:space="preserve">
<style type="text/css">
	.st0{fill:#FF5723;}
	.st1{fill:#EF704D;}
	.st2{fill:#A33113;}
	.st3{fill:#963F27;}
</style>
<g>
	<g>
		<path class="st0" d="M105.5,218.2c4.7,15.3,13.3,25.9,23.7,25.9h139.5c13.6,0,23.6-16,27.9-36.6c4.5-21.4,2.8-47.6-7.1-65.6
			c-0.8-1.7-1.8-3.2-2.8-4.7L239.5,68c-14-20.5-31-31.7-48.5-31.7c-9.5,0-18.8,3.3-27.6,9.5c-3.6,2.4-7,5.5-10.3,8.9
			c-11.5,12-21.6,29.5-29.1,51.2l-18,52.3C99.3,177.8,100,200.9,105.5,218.2z"/>
		<path class="st1" d="M105.5,218.2c4.7,15.3,13.3,25.9,23.7,25.9h15.7L139,145l23.3-53.3l1.1-45.7c-3.6,2.4-7,5.5-10.3,8.9
			c-11.5,12-21.6,29.5-29.1,51.2l-18,52.3C99.3,177.8,100,200.9,105.5,218.2z"/>
		<polygon class="st2" points="198.3,192.7 238.6,194.6 268.6,244.2 172,244.2 		"/>
		<path class="st3" d="M172,244.2h-42.9c-10.4,0-19-10.7-23.7-25.9L139,145l59.3,47.7L172,244.2z"/>
		<path class="st3" d="M238.6,194.6c0,0,41.8-43.4,50.8-52.6c9.9,18.1,11.5,44.2,7.1,65.6l0,0c-4.3,20.6-14.2,36.6-27.9,36.6"/>
	</g>
	<ellipse class="st0" cx="200" cy="341.3" rx="107.8" ry="22.3"/>
</g>
</svg>
