<?xml version="1.0" encoding="utf-8"?>
<!-- Generator: Adobe Illustrator 22.1.0, SVG Export Plug-In . SVG Version: 6.00 Build 0)  -->
<svg version="1.1" id="Layer_1" xmlns="http://www.w3.org/2000/svg" xmlns:xlink="http://www.w3.org/1999/xlink" x="0px" y="0px"
	 viewBox="0 0 400 400" style="enable-background:new 0 0 400 400;" xml:space="preserve">
<style type="text/css">
	.st0{fill:#E9EEF1;}
	.st1{fill:#FF5723;}
	.st2{fill:#CCD1D3;}
	.st3{fill:#F2F7F9;}
	.st4{fill:#DBE0E2;}
</style>
<g>
	<g id="scissor">
		<path class="st0" d="M220.9,193c-2.3,6.4,23.4-22.5,16.7-19.1l-114-133c-12.1,20.1-8.9,45.9,7.7,62.5L220.9,193z"/>
		<path class="st1" d="M216.2,206.2c0-19.2,15.6-34.8,34.8-34.8s34.8,15.6,34.8,34.8S270.2,241,251,241S216.2,225.4,216.2,206.2
			 M231.6,206.2c0,10.7,8.7,19.4,19.4,19.4c10.7,0,19.4-8.7,19.4-19.4s-8.7-19.4-19.4-19.4C240.3,186.9,231.6,195.5,231.6,206.2"/>
		<polygon class="st2" points="209,140.6 189.8,161.9 208.1,180.3 226.9,161.5 		"/>
		<path class="st3" d="M266.6,103.4c16.6-16.6,19.8-42.3,7.7-62.5l-114,133c-6.7-3.5,19,25.5,16.7,19.1L266.6,103.4z"/>
		<path class="st1" d="M147,171.5c-19.2,0-34.8,15.6-34.8,34.8c0,0.7,0,1.3,0.1,1.9c1,18.3,16.2,32.8,34.7,32.8s33.7-14.5,34.7-32.8
			c0-0.6,0.1-1.3,0.1-1.9C181.7,187.1,166.1,171.5,147,171.5z M166.2,208.1L166.2,208.1c-1,9.8-9.2,17.5-19.3,17.5
			c-10,0-18.3-7.7-19.3-17.4v-0.1c-0.1-0.6-0.1-1.3-0.1-1.9c0-10.7,8.7-19.4,19.4-19.4s19.4,8.7,19.4,19.4
			C166.3,206.9,166.3,207.5,166.2,208.1z"/>
		<path class="st4" d="M199,140.3c4.8,0,8.7,3.9,8.7,8.7s-3.9,8.7-8.7,8.7s-8.7-3.9-8.7-8.7C190.3,144.1,194.2,140.3,199,140.3"/>
	</g>
	<ellipse class="st1" cx="198.9" cy="338.1" rx="107.8" ry="22.3"/>
</g>
</svg>
